<svg width="376" height="365" viewBox="0 0 376 365" fill="none" xmlns="http://www.w3.org/2000/svg">
<path fill-rule="evenodd" clip-rule="evenodd" d="M182.262 4.35809C183.74 -1.45267 191.984 -1.45272 193.462 4.35809L199.754 29.0965C200.982 33.9251 207.325 35.045 210.128 30.9281L224.491 9.83653C227.865 4.88235 235.611 7.70594 235.015 13.6727L232.478 39.073C231.982 44.0311 237.56 47.2558 241.601 44.3473L262.302 29.4469C267.164 25.9466 273.479 31.2523 270.881 36.6552L259.821 59.6553C257.662 64.1447 261.802 69.0852 266.592 67.7359L291.134 60.8229C296.899 59.199 301.021 66.3479 296.734 70.5352L278.484 88.3606C274.922 91.8399 277.125 97.9002 282.088 98.2727L307.51 100.181C313.482 100.63 314.914 108.759 309.455 111.226L286.217 121.726C281.681 123.775 281.681 130.225 286.217 132.274L309.455 142.774C314.914 145.241 313.482 153.37 307.51 153.819L282.088 155.727C277.125 156.1 274.922 162.161 278.484 165.64L296.734 183.465C301.021 187.652 296.899 194.801 291.134 193.177L266.592 186.264C261.802 184.915 257.662 189.855 259.821 194.345L270.881 217.345C273.479 222.748 267.164 228.053 262.302 224.553L241.601 209.653C237.56 206.744 231.982 209.969 232.478 214.927L235.015 240.328C235.611 246.294 227.865 249.118 224.491 244.163L210.128 223.072C207.325 218.955 200.982 220.075 199.754 224.903L193.462 249.642C191.984 255.453 183.74 255.453 182.262 249.642L175.97 224.903C174.742 220.075 168.399 218.955 165.595 223.072L151.233 244.163C147.859 249.118 140.112 246.295 140.708 240.328L143.245 214.927C143.741 209.969 138.163 206.744 134.122 209.653L113.422 224.553C108.559 228.053 102.244 222.748 104.842 217.345L115.903 194.345C118.062 189.855 113.921 184.915 109.131 186.264L84.5899 193.177C78.8248 194.801 74.7024 187.652 78.9895 183.465L97.2396 165.64C100.802 162.161 98.5986 156.1 93.6363 155.727L68.2134 153.819C62.2413 153.37 60.8098 145.241 66.2685 142.774L89.506 132.274C94.0419 130.225 94.0419 123.775 89.506 121.726L66.2685 111.226C60.8098 108.759 62.2413 100.63 68.2134 100.181L93.6363 98.2727C98.5985 97.9002 100.802 91.8399 97.2396 88.3606L78.9895 70.5352C74.7026 66.3479 78.8249 59.1989 84.5899 60.8229L109.131 67.7359C113.921 69.0853 118.062 64.1447 115.903 59.6553L104.842 36.6552C102.244 31.2524 108.559 25.9466 113.422 29.4469L134.122 44.3473C138.163 47.2558 143.741 44.0311 143.245 39.073L140.708 13.6727C140.112 7.70588 147.859 4.88215 151.233 9.83653L165.595 30.9281C168.399 35.0448 174.742 33.9251 175.97 29.0965L182.262 4.35809ZM173.302 163.808C171.732 162.718 169.567 163.042 168.387 164.574C167.207 166.107 167.446 168.286 168.898 169.529L169.042 169.646L169.934 170.334L170.45 170.724C181.357 178.77 196.388 178.317 206.8 169.55L206.94 169.427C208.338 168.123 208.484 165.936 207.24 164.455C205.997 162.974 203.82 162.743 202.297 163.898L202.151 164.014C194.298 170.627 182.96 170.969 174.733 164.9L174.343 164.606L173.452 163.918L173.302 163.808ZM223.525 111.14C218.808 107.991 212.897 107.248 207.563 109.11L207.049 109.299L206.324 109.576C199.337 112.256 194.724 118.972 194.724 126.463V142.19C194.724 145.985 191.651 149.061 187.862 149.061C184.072 149.061 180.999 145.985 180.999 142.19V126.538C180.999 119.118 176.475 112.464 169.61 109.733L169.281 109.607L168.571 109.34C163.086 107.28 156.956 108.017 152.121 111.288L151.657 111.612L144.933 116.474C143.316 117.643 142.952 119.904 144.12 121.524C145.288 123.143 147.546 123.507 149.163 122.338L155.887 117.476L156.165 117.281C159.066 115.318 162.744 114.876 166.035 116.112L166.745 116.379L167.137 116.535C171.146 118.221 173.776 122.157 173.776 126.538V142.19C173.776 149.98 180.082 156.294 187.862 156.294C195.641 156.294 201.947 149.979 201.947 142.19V126.463C201.948 121.968 204.716 117.939 208.908 116.331L209.632 116.054L209.941 115.941C213.142 114.823 216.688 115.268 219.518 117.158L226.31 121.692L226.467 121.791C228.109 122.77 230.247 122.298 231.319 120.689C232.39 119.079 232.003 116.922 230.469 115.781L230.317 115.674L223.525 111.14ZM161.857 119.768C157.867 119.768 153.188 123.006 153.188 127.001C153.189 130.995 157.867 134.234 161.857 134.234C165.846 134.234 170.525 130.995 170.525 127.001C170.525 123.006 165.846 119.768 161.857 119.768ZM213.866 119.768C209.877 119.768 205.198 123.006 205.198 127.001C205.198 130.995 209.877 134.234 213.866 134.234C217.856 134.234 222.535 130.995 222.535 127.001C222.535 123.006 217.856 119.768 213.866 119.768Z" fill="#FFFFF1"/>
<path d="M373.724 349C374.828 349 375.724 349.895 375.724 351V361.28C375.724 362.385 374.828 363.28 373.724 363.28H323.724C322.619 363.28 321.724 362.385 321.724 361.28V350.407C321.724 349.889 321.925 349.392 322.284 349.019L351.095 319.148C352.32 317.878 351.42 315.76 349.656 315.76H325.044C323.939 315.76 323.044 314.865 323.044 313.76V303.48C323.044 302.375 323.939 301.48 325.044 301.48H372.644C373.748 301.48 374.644 302.375 374.644 303.48V314.835C374.644 315.352 374.444 315.848 374.086 316.221L345.855 345.615C344.634 346.886 345.535 349 347.298 349H373.724Z" fill="#FFFFF1"/>
<path d="M311.854 327.52V361.28C311.854 362.385 310.958 363.28 309.854 363.28H298.014C296.909 363.28 296.014 362.385 296.014 361.28V327.16C296.014 323.68 294.814 315.4 284.374 315.4C277.414 315.4 272.374 320.2 272.374 327.16V361.28C272.374 362.385 271.478 363.28 270.374 363.28H258.534C257.429 363.28 256.534 362.385 256.534 361.28V327.16C256.534 323.68 255.454 315.4 245.014 315.4C237.934 315.4 233.014 320.2 233.014 327.16V361.28C233.014 362.385 232.118 363.28 231.014 363.28H219.174C218.069 363.28 217.174 362.385 217.174 361.28V327.52C217.174 311.8 228.094 299.92 245.014 299.92C252.465 299.92 258.688 302.564 263.098 306.93C263.979 307.801 265.432 307.821 266.328 306.966C270.926 302.578 277.222 299.92 284.374 299.92C301.654 299.92 311.854 311.32 311.854 327.52Z" fill="#FFFFF1"/>
<path d="M203.706 332.44V361.28C203.706 362.385 202.81 363.28 201.706 363.28H190.51C189.514 363.28 188.706 362.472 188.706 361.476C188.706 359.825 186.566 358.946 185.23 359.915C180.947 363.02 175.622 364.6 169.866 364.6C153.546 364.6 140.226 350.2 140.226 332.44C140.226 314.56 153.306 299.92 172.026 299.92C190.626 299.92 203.706 314.56 203.706 332.44ZM187.866 332.56C187.866 322.72 180.786 314.8 172.026 314.8C163.266 314.8 156.186 322.36 156.186 332.56C156.186 342.4 163.266 349.96 172.026 349.96C180.786 349.96 187.866 342.16 187.866 332.56Z" fill="#FFFFF1"/>
<path d="M114.76 344.627C115.166 344.013 115.833 343.6 116.57 343.6H129.642C130.971 343.6 131.93 344.875 131.457 346.116C127.185 357.321 116.727 364.72 102.413 364.72C84.8934 364.72 70.7334 350.32 70.7334 332.44C70.7334 314.56 84.8934 299.92 102.413 299.92C116.816 299.92 128.969 308.689 132.455 324.267C132.66 325.182 132.159 326.098 131.294 326.462L91.4452 343.212C90.2487 343.714 89.84 345.213 90.7605 346.128C93.7765 349.126 97.7839 350.8 102.293 350.8C107.08 350.8 111.969 348.838 114.76 344.627ZM85.8133 328.49C85.5617 329.928 87.0302 330.952 88.3756 330.385L112.054 320.405C113.289 319.884 113.667 318.315 112.641 317.452C109.899 315.146 106.327 313.84 102.293 313.84C94.1 313.84 87.3594 319.651 85.8133 328.49Z" fill="#FFFFF1"/>
<path d="M63.48 332.44C63.48 350.32 50.4 364.72 31.8 364.72C13.08 364.72 0 350.32 0 332.44V276C0 274.895 0.895431 274 2 274H13.96C15.0646 274 15.96 274.895 15.96 276V302.356C15.96 304.162 18.2727 305.14 19.7726 304.134C23.7978 301.434 28.5771 300.16 33.96 300.16C50.28 300.16 63.48 314.68 63.48 332.44ZM47.64 332.56C47.64 322.36 40.56 314.8 31.8 314.8C23.04 314.8 15.96 322.72 15.96 332.56C15.96 342.16 23.04 349.96 31.8 349.96C40.56 349.96 47.64 342.4 47.64 332.56Z" fill="#FFFFF1"/>
</svg>
